# 3ds Max Wavefront OBJ Exporter v0.99 - (c)2007 guruware
# 创建的文件:25.11.2021 18:22:10

mtllib corner.mtl

#
# object Box001
#

v  0.0000 0.0000 -0.0000
v  0.0000 0.0000 -10.0000
v  2.0000 0.0000 -10.0000
v  2.0000 0.0000 -0.0000
v  2.0000 2.6000 -0.0000
v  0.0000 2.6000 -0.0000
v  0.0000 2.6000 -10.0000
v  2.0000 2.6000 -10.0000
v  10.0000 0.0000 -8.0000
v  2.0000 0.0000 -8.0000
v  10.0000 0.0000 -10.0000
v  10.0000 2.6000 -10.0000
v  10.0000 2.6000 -8.0000
v  2.0000 2.6000 -8.0000
# 14 vertices

vn -0.5774 -0.5774 0.5774
vn -0.5774 -0.5774 -0.5774
vn 0.5774 -0.5774 -0.5774
vn 0.5774 -0.5774 0.5774
vn 0.5774 0.5774 0.5774
vn -0.5774 0.5774 0.5774
vn -0.5774 0.5774 -0.5774
vn 0.5774 0.5774 -0.5774
# 8 vertex normals

vt 0.0000 0.0000 0.0000
vt 1.0000 0.0000 0.0000
vt 1.0000 1.0000 0.0000
vt 0.0000 1.0000 0.0000
# 4 texture coords

o Box001
g Box001
usemtl 01___Default
s 2
f 1/1/1 2/2/2 3/3/3 4/4/4 
s 8
f 1/1/1 4/2/4 5/3/5 6/4/6 
s 64
f 2/1/2 1/2/1 6/3/6 7/4/7 
s 32
f 3/1/3 2/2/2 7/3/7 8/4/8 
s 16
f 4/1/4 3/2/3 8/3/8 5/4/5 
s 4
f 6/1/6 5/2/5 8/3/8 7/4/7 
s 1
f 9/1/4 10/2/1 3/3/2 11/4/3 
s 256
f 9/1/4 11/2/3 12/3/8 13/4/5 
s 2048
f 10/1/1 9/2/4 13/3/5 14/4/6 
s 1024
f 3/1/2 10/2/1 14/3/6 8/4/7 
s 512
f 11/1/3 3/2/2 8/3/7 12/4/8 
s 128
f 13/1/5 12/2/8 8/3/7 14/4/6 
# 12 polygons

